<svg width="300" height="71" viewBox="0 0 300 71" fill="none" xmlns="http://www.w3.org/2000/svg">
<path d="M61 17.8599V31.7488H46.4095L37.0627 26.2776L30.388 22.3711L19.3466 28.8324L19.3242 28.8459L19.3914 28.8843L30.3271 41.6688L13.8713 32.0376L13.7582 31.9701V25.7207L13.8713 25.6542L15.7078 24.5789L24.934 19.1793L30.3933 15.9887L35.8398 19.1793L47.9685 26.2776H55.3806V20.9539L44.0939 14.3492L38.6409 11.1575L30.3933 6.3803L22.2459 11.2229L16.793 14.4146L5.72929 20.8895L5.61831 20.957V34.8044H0V24.2422V23.9191V17.8599L0.277448 17.6978L5.61831 14.5715L11.3401 11.2229L16.793 8.03122L25.0471 3.20002L30.3933 0L35.9529 3.20002L44.0939 7.96576L49.5468 11.1575L55.3806 14.5715L61 17.8599Z" fill="#EA2E81"/>
<path d="M0 52.1665V38.2776H14.5895L23.9362 43.7478L30.612 47.6553L41.6523 41.194L41.6758 41.1805L41.6075 41.141L30.6718 28.3575L47.1276 37.9888H47.1287L47.2418 38.0563V44.3057L47.1287 44.3722L45.2911 45.4465L36.065 50.847L30.6056 54.0377L25.1591 50.847L13.0304 43.7478H5.61831V49.0725L16.9051 55.6772L22.358 58.8689L30.6056 63.6461L38.753 58.8034L44.2059 55.6117L55.2696 49.1369L55.3806 49.0746V35.222H61V45.7841V46.1717V46.1073V52.1665L60.7215 52.3286L55.3806 55.4549L49.6588 58.8034L44.2059 61.9952L35.9529 66.8264L30.6056 70.0264L25.0471 66.8264L16.9051 62.0606L11.4522 58.8689L5.61831 55.4549L0 52.1665Z" fill="black"/>
<g clip-path="url(#clip0_437_573)">
<path d="M75.9959 34.0936H83.777C83.8335 35.2966 84.0926 36.0636 84.5546 36.3946C85.0165 36.7256 86.0858 36.9111 87.7623 36.9511L89.9802 37.0125H97.6753C99.2533 36.9452 100.042 36.3237 100.041 35.1479C100.041 34.0568 99.5082 33.4353 98.4428 33.2834C97.919 33.2234 97.3922 33.1897 96.8647 33.1825L95.3096 33.1211L90.6401 32.9383H90.4493L88.3591 32.8169C86.7256 32.726 85.4182 32.6583 84.4369 32.6137C83.2303 32.5777 82.0272 32.4697 80.8347 32.2905C77.8364 31.8167 76.3373 29.7221 76.3373 26.0067C76.3373 23.4261 76.7495 21.5716 77.5739 20.4432C78.3983 19.3147 79.5814 18.5873 81.1231 18.2609C82.6638 17.9362 85.6286 17.7739 90.0175 17.7739C95.0184 17.7739 98.6049 17.9103 100.777 18.1831C102.949 18.4559 104.523 19.0806 105.498 20.0572C106.471 21.031 106.979 22.4768 107.022 24.3945V26.0163H99.2576C99.1285 24.936 98.8865 24.2436 98.5317 23.939C98.1769 23.6344 97.1894 23.4484 95.5693 23.3811L93.4978 23.3184H88.9358C86.804 23.3184 85.4679 23.4771 84.9276 23.7944C84.3872 24.1118 84.117 24.6082 84.117 25.2838C84.117 26.2577 84.6359 26.8524 85.6736 27.0679C86.2403 27.1785 86.8166 27.2397 87.3951 27.2507L89.4193 27.2902L96.5606 27.5139C100.386 27.6357 102.873 27.879 104.02 28.2436C106.549 29.0402 107.814 31.3639 107.815 35.2148C107.815 36.8779 107.506 38.2664 106.888 39.3803C106.27 40.4942 105.25 41.308 103.827 41.8217C102.398 42.3346 99.2112 42.591 94.2667 42.591C86.4779 42.591 81.6849 42.2973 79.8879 41.7099C78.0908 41.1225 76.9786 40.1464 76.551 38.7815C76.2663 37.8032 76.1088 36.7955 76.0819 35.7808L75.9959 34.0936Z" fill="black"/>
<path d="M134.096 42.591L122.947 42.531C120.006 42.5173 117.97 42.3414 116.84 42.0031C115.718 41.6712 114.718 41.0464 113.952 40.2C112.545 38.6605 111.842 35.5866 111.842 30.9783C111.842 27.6403 112.012 25.1779 112.352 23.5911C112.693 22.0044 113.339 20.7914 114.292 19.9521C115.357 19.0074 116.718 18.4095 118.375 18.1585C120.031 17.9076 123.048 17.7825 127.424 17.7835H127.956L133.541 17.8039C136.17 17.8175 138.291 17.9289 139.905 18.1381C141.518 18.3472 142.851 18.9519 143.902 19.9521C144.62 20.6615 145.179 21.503 145.543 22.425C145.942 23.397 146.162 25.1401 146.204 27.6544L146.269 31.6262C146.269 34.7178 145.977 36.9506 145.394 38.3245C144.81 39.6985 143.925 40.7356 142.74 41.4357C141.553 42.1395 139.986 42.5178 138.04 42.5705L137.272 42.591H134.096ZM132.838 36.3291H133.092C135.182 36.3291 136.511 36.1059 137.079 35.6594C137.647 35.2129 138.016 34.5914 138.188 33.7949C138.386 32.9038 138.485 31.4784 138.486 29.5189C138.486 27.6266 138.326 26.3536 138.007 25.6998C137.687 25.046 137.097 24.6105 136.237 24.3932C135.376 24.1767 132.942 24.0617 128.936 24.0481H125.945C123.373 24.0481 121.782 24.234 121.171 24.6059C120.583 24.9492 120.144 25.4816 119.934 26.1063C119.722 26.7346 119.615 28.4068 119.614 31.1229C119.61 32.0117 119.677 32.8995 119.816 33.7785C119.951 34.6023 120.31 35.217 120.894 35.6226C121.477 36.0281 123.019 36.2441 125.519 36.2704L132.838 36.3291Z" fill="black"/>
<path d="M151.079 18.0672H173.589C177.369 18.0672 179.839 18.6787 180.997 19.9017C182.155 21.1247 182.732 23.202 182.729 26.1336C182.729 28.0522 182.448 29.5048 181.887 30.4914C181.325 31.478 179.957 32.2886 177.784 32.9233C179.744 33.3689 181.035 33.9736 181.657 34.7374C182.279 35.5012 182.588 37.0315 182.584 39.3284C182.584 40.5042 182.591 41.4971 182.605 42.3073H174.825C174.782 41.4289 174.761 40.6928 174.762 40.0991C174.762 38.5042 174.549 37.4739 174.123 37.0084C173.696 36.5428 172.715 36.3096 171.18 36.3086H158.859V42.31H151.079V18.0672ZM158.859 24.3304V30.0454H169.71L172.183 29.9854C172.735 29.9935 173.285 29.9042 173.803 29.7221C174.568 29.4111 174.95 28.5259 174.95 27.0665C174.95 26.2018 174.744 25.5398 174.332 25.0806C173.92 24.6214 173.074 24.3918 171.796 24.3918L169.515 24.3304H158.859Z" fill="black"/>
<path d="M209.765 42.591L198.615 42.531C195.674 42.5173 193.639 42.3414 192.508 42.0031C191.387 41.6716 190.386 41.0468 189.62 40.2C188.214 38.6605 187.51 35.5866 187.509 30.9783C187.509 27.6403 187.679 25.1779 188.021 23.5911C188.362 22.0044 189.009 20.7914 189.96 19.9521C191.027 19.0074 192.388 18.4095 194.043 18.1585C195.699 17.9076 198.715 17.7825 203.093 17.7835H203.625L209.21 17.8039C211.84 17.8175 213.961 17.9289 215.573 18.1381C217.186 18.3472 218.518 18.9519 219.57 19.9521C220.289 20.6615 220.847 21.503 221.211 22.425C221.608 23.397 221.829 25.1401 221.873 27.6544L221.936 31.6262C221.936 34.7178 221.645 36.9506 221.062 38.3245C220.48 39.6985 219.595 40.7356 218.408 41.4357C217.222 42.1395 215.656 42.5178 213.709 42.5705L212.941 42.591H209.765ZM208.507 36.3291H208.762C210.852 36.3291 212.181 36.1059 212.749 35.6594C213.317 35.2129 213.687 34.5914 213.858 33.7949C214.056 32.9038 214.155 31.4784 214.156 29.5189C214.156 27.6266 213.996 26.3536 213.676 25.6998C213.355 25.046 212.766 24.6105 211.907 24.3932C211.046 24.1767 208.612 24.0617 204.606 24.0481H201.621C199.049 24.0481 197.458 24.234 196.846 24.6059C196.259 24.9492 195.82 25.4816 195.61 26.1063C195.398 26.7346 195.291 28.4068 195.29 31.1229C195.286 32.0117 195.353 32.8995 195.492 33.7785C195.627 34.6023 195.986 35.217 196.57 35.6226C197.153 36.0281 198.695 36.2441 201.195 36.2704L208.507 36.3291Z" fill="black"/>
<path d="M226.755 18.0672H249.265C253.045 18.0672 255.515 18.6787 256.673 19.9017C257.831 21.1247 258.41 23.202 258.41 26.1336C258.41 28.0522 258.129 29.5048 257.568 30.4914C257.007 31.478 255.638 32.2886 253.464 32.9233C255.426 33.3689 256.717 33.9736 257.337 34.7374C257.957 35.5012 258.266 37.0315 258.264 39.3284C258.264 40.5042 258.271 41.4971 258.285 42.3073H250.504C250.461 41.4289 250.439 40.6928 250.439 40.0991C250.439 38.5042 250.227 37.4739 249.801 37.0084C249.375 36.5428 248.395 36.3096 246.859 36.3086H234.537V42.31H226.757L226.755 18.0672ZM234.534 24.3304V30.0454H245.385L247.857 29.9854C248.41 29.9936 248.96 29.9044 249.478 29.7221C250.243 29.4111 250.626 28.5259 250.626 27.0665C250.626 26.2018 250.42 25.5398 250.008 25.0806C249.595 24.6214 248.75 24.3918 247.471 24.3918L245.19 24.3304H234.534Z" fill="black"/>
<path d="M261.949 42.3073L276.04 18.0672H285.908L300 42.3073H291.174L288.807 38.1323H273.076L270.78 42.3073H261.949ZM276.167 32.4773H285.636L281.01 24.2295L276.167 32.4773Z" fill="black"/>
<path d="M85.7177 48.7739H88.0131V54.0714H93.0499V55.9169H85.7192L85.7177 48.7739Z" fill="black"/>
<path d="M96.0254 55.9169L100.178 48.7739H103.086L107.238 55.9169H104.639L103.941 54.6893H99.3048L98.6263 55.9169H96.0254ZM100.216 53.0198H103.005L101.642 50.5893L100.216 53.0198Z" fill="black"/>
<path d="M110.75 48.7739H114.387L118.715 54.0933V48.7739H121.01V55.9169H117.371L113.043 50.577V55.9169H110.747L110.75 48.7739Z" fill="black"/>
<path d="M125.008 48.7739H132.006C132.818 48.7739 133.415 48.8771 133.796 49.0835C134.2 49.317 134.506 49.6746 134.666 50.0969C134.866 50.5643 134.965 51.3695 134.964 52.5125C134.964 53.5791 134.857 54.3283 134.641 54.7602C134.459 55.1591 134.13 55.4804 133.715 55.6632C133.312 55.8323 132.657 55.9169 131.748 55.9169H125.005L125.008 48.7739ZM127.304 50.6193V54.0714H131.399C131.91 54.0714 132.25 53.9628 132.421 53.7455C132.591 53.5281 132.676 53.028 132.675 52.2451C132.675 51.5631 132.577 51.1226 132.388 50.9221C132.198 50.7216 131.866 50.6207 131.405 50.6207L127.304 50.6193Z" fill="black"/>
<path d="M146.848 48.7739H153.846C154.658 48.7739 155.254 48.8771 155.635 49.0835C156.039 49.3165 156.346 49.6742 156.506 50.0969C156.706 50.5643 156.805 51.3695 156.804 52.5125C156.804 53.5791 156.696 54.3283 156.48 54.7602C156.299 55.1595 155.97 55.4811 155.555 55.6632C155.151 55.8323 154.496 55.9169 153.588 55.9169H146.845L146.848 48.7739ZM149.144 50.6193V54.0714H153.239C153.75 54.0714 154.09 53.9628 154.259 53.7455C154.429 53.5281 154.514 53.028 154.515 52.2451C154.515 51.5631 154.417 51.1226 154.228 50.9221C154.038 50.7216 153.706 50.6207 153.245 50.6207L149.144 50.6193Z" fill="black"/>
<path d="M160.666 55.9169V48.7739H168.926V50.4392H162.96V51.4431H168.601V52.8998H162.96V54.2501H168.997V55.9169H160.666Z" fill="black"/>
<path d="M172.42 48.7739H174.982L177.953 54.1301L180.965 48.7739H183.466L179.397 55.9169H176.49L172.42 48.7739Z" fill="black"/>
<path d="M186.778 55.9169V48.7739H195.039V50.4392H189.071V51.4431H194.712V52.8998H189.071V54.2501H195.108V55.9169H186.778Z" fill="black"/>
<path d="M199.183 48.7739H201.479V54.0714H206.517V55.9169H199.186L199.183 48.7739Z" fill="black"/>
<path d="M216.414 56.0001L213.129 55.9824C212.26 55.9824 211.66 55.9305 211.328 55.8269C210.998 55.7289 210.703 55.5446 210.478 55.2949C210.063 54.8403 209.855 53.9346 209.855 52.5779C209.855 51.5941 209.905 50.8666 210.006 50.3956C210.073 49.9895 210.274 49.6141 210.58 49.3236C210.915 49.0359 211.334 48.8514 211.782 48.7943C212.27 48.7207 213.158 48.6839 214.449 48.6839H214.606H216.252C216.878 48.6797 217.505 48.7124 218.127 48.7821C218.571 48.8297 218.986 49.018 219.305 49.3167C219.516 49.5258 219.681 49.7736 219.788 50.0451C219.906 50.3315 219.971 50.8453 219.983 51.5863L220.002 52.7566C220.002 53.6659 219.916 54.3238 219.744 54.7303C219.596 55.1089 219.321 55.4308 218.962 55.6468C218.54 55.8729 218.062 55.9887 217.577 55.9824H217.351L216.414 56.0001ZM216.042 54.1547H216.118C216.733 54.1547 217.125 54.0887 217.293 53.9569C217.466 53.8167 217.581 53.6237 217.619 53.4113C217.69 52.9948 217.72 52.5728 217.708 52.151C217.708 51.5936 217.66 51.2181 217.565 51.0244C217.514 50.9268 217.441 50.8414 217.351 50.7748C217.261 50.7081 217.156 50.6619 217.044 50.6398C216.79 50.5761 216.073 50.542 214.892 50.5375H214.013C213.255 50.5375 212.786 50.5934 212.605 50.7025C212.432 50.8037 212.303 50.9605 212.241 51.1444C212.178 51.3299 212.148 51.8264 212.148 52.6229C212.146 52.8845 212.166 53.1458 212.206 53.4045C212.218 53.511 212.252 53.6142 212.306 53.708C212.361 53.8017 212.435 53.8841 212.523 53.9501C212.696 54.0692 213.15 54.1328 213.886 54.141L216.042 54.1547Z" fill="black"/>
<path d="M223.87 48.7739H229.321C230.486 48.7739 231.265 48.8511 231.658 49.0057C232.047 49.1569 232.362 49.4431 232.537 49.8064C232.729 50.1855 232.824 50.7211 232.824 51.4131C232.824 52.4042 232.646 53.1162 232.291 53.5491C231.935 53.9819 231.265 54.1978 230.282 54.1969H226.155V55.9169H223.859L223.87 48.7739ZM226.165 50.6193V52.3515H229.048C229.797 52.3515 230.233 52.2838 230.355 52.1483C230.476 52.0119 230.537 51.7691 230.537 51.4199C230.548 51.2538 230.513 51.0879 230.436 50.9385C230.367 50.8274 230.261 50.7422 230.134 50.697C230 50.6452 229.592 50.6193 228.909 50.6193H226.165Z" fill="black"/>
<path d="M236.626 55.9169V48.7739H240.264L242.889 53.3608L245.565 48.7739H249.203V55.9169H246.907V50.7202L243.793 55.9169H241.991L238.92 50.7025V55.9169H236.626Z" fill="black"/>
<path d="M253.247 55.9169V48.7739H261.507V50.4392H255.539V51.4431H261.18V52.8998H255.539V54.2501H261.576V55.9169H253.247Z" fill="black"/>
<path d="M265.521 48.7739H269.158L273.486 54.0933V48.7739H275.781V55.9169H272.145L267.817 50.577V55.9169H265.521V48.7739Z" fill="black"/>
<path d="M279.283 48.7739H288.159V50.6193H284.871V55.9169H282.576V50.6193H279.285L279.283 48.7739Z" fill="black"/>
</g>
<defs>
<clipPath id="clip0_437_573">
<rect width="224" height="43" fill="white" transform="translate(76 13)"/>
</clipPath>
</defs>
</svg>
