<svg width="230" height="71" viewBox="0 0 230 71" fill="none" xmlns="http://www.w3.org/2000/svg">
<path d="M61 17.8599V31.7488H46.4095L37.0627 26.2776L30.388 22.3711L19.3466 28.8324L19.3242 28.8459L19.3914 28.8843L30.3271 41.6688L13.8713 32.0376L13.7582 31.9701V25.7207L13.8713 25.6542L15.7078 24.5789L24.934 19.1793L30.3933 15.9887L35.8398 19.1793L47.9685 26.2776H55.3806V20.9539L44.0939 14.3492L38.6409 11.1575L30.3933 6.3803L22.2459 11.2229L16.793 14.4146L5.72929 20.8895L5.61831 20.957V34.8044H0V24.2422V23.9191V17.8599L0.277448 17.6978L5.61831 14.5715L11.3401 11.2229L16.793 8.03122L25.0471 3.20002L30.3933 0L35.9529 3.20002L44.0939 7.96576L49.5468 11.1575L55.3806 14.5715L61 17.8599Z" fill="#EA2E81"/>
<path d="M0 52.1665V38.2776H14.5895L23.9362 43.7478L30.612 47.6553L41.6523 41.194L41.6758 41.1805L41.6075 41.141L30.6718 28.3575L47.1276 37.9888H47.1287L47.2418 38.0563V44.3057L47.1287 44.3722L45.2911 45.4465L36.065 50.847L30.6056 54.0377L25.1591 50.847L13.0304 43.7478H5.61831V49.0725L16.9051 55.6772L22.358 58.8689L30.6056 63.6461L38.753 58.8034L44.2059 55.6117L55.2696 49.1369L55.3806 49.0746V35.222H61V45.7841V46.1717V46.1073V52.1665L60.7215 52.3286L55.3806 55.4549L49.6588 58.8034L44.2059 61.9952L35.9529 66.8264L30.6056 70.0264L25.0471 66.8264L16.9051 62.0606L11.4522 58.8689L5.61831 55.4549L0 52.1665Z" fill="black"/>
<g clip-path="url(#clip0_208_93)">
<path d="M77.9972 31.6578H83.2773C83.3156 32.4937 83.4914 33.0267 83.8049 33.2567C84.1184 33.4867 84.8439 33.6156 85.9816 33.6434L87.4865 33.6861H92.7082C93.779 33.6393 94.3141 33.2074 94.3135 32.3904C94.3135 31.6322 93.952 31.2003 93.229 31.0948C92.8736 31.0531 92.5162 31.0297 92.1582 31.0247L91.103 30.982L87.9343 30.855H87.8049L86.3865 30.7706C85.2781 30.7075 84.3909 30.6604 83.7251 30.6294C82.9063 30.6044 82.0899 30.5294 81.2807 30.4048C79.2461 30.0756 78.2289 28.6201 78.2289 26.0383C78.2289 24.2451 78.5086 22.9564 79.068 22.1722C79.6274 21.3881 80.4302 20.8826 81.4764 20.6558C82.5219 20.4302 84.5337 20.3174 87.5119 20.3174C90.9054 20.3174 93.339 20.4122 94.8129 20.6017C96.2867 20.7913 97.3546 21.2254 98.0165 21.904C98.6765 22.5807 99.0211 23.5854 99.0504 24.918V26.0449H93.782C93.6943 25.2943 93.5301 24.8131 93.2894 24.6014C93.0486 24.3898 92.3785 24.2605 91.2792 24.2138L89.8735 24.1702H86.7779C85.3313 24.1702 84.4247 24.2804 84.058 24.501C83.6913 24.7215 83.508 25.0665 83.508 25.536C83.508 26.2127 83.8601 26.6259 84.5642 26.7757C84.9488 26.8526 85.3398 26.8951 85.7324 26.9027L87.1059 26.9302L91.9518 27.0856C94.5477 27.1703 96.2351 27.3393 97.0139 27.5927C98.7298 28.1462 99.588 29.7609 99.5887 32.4369C99.5887 33.5926 99.3791 34.5574 98.9598 35.3315C98.5406 36.1055 97.8481 36.671 96.8824 37.028C95.9129 37.3844 93.7505 37.5626 90.3953 37.5626C85.11 37.5626 81.8576 37.3585 80.6382 36.9503C79.4188 36.5421 78.664 35.8638 78.3739 34.9154C78.1807 34.2356 78.0738 33.5353 78.0556 32.8302L77.9972 31.6578Z" fill="black"/>
<path d="M117.422 37.5625L109.857 37.5208C107.861 37.5113 106.48 37.3891 105.713 37.154C104.952 36.9234 104.273 36.4892 103.753 35.901C102.798 34.8313 102.321 32.6953 102.321 29.493C102.321 27.1734 102.437 25.4623 102.668 24.3597C102.899 23.2571 103.337 22.4142 103.984 21.831C104.707 21.1745 105.63 20.759 106.754 20.5846C107.878 20.4102 109.925 20.3233 112.895 20.324H113.256L117.046 20.3382C118.83 20.3477 120.269 20.4251 121.364 20.5704C122.459 20.7157 123.363 21.1359 124.076 21.831C124.564 22.3239 124.943 22.9087 125.19 23.5493C125.46 24.2248 125.61 25.4361 125.638 27.1832L125.682 29.9432C125.682 32.0915 125.484 33.6431 125.088 34.5978C124.693 35.5526 124.092 36.2732 123.288 36.7597C122.482 37.2488 121.419 37.5117 120.098 37.5483L119.578 37.5625H117.422ZM116.569 33.2112H116.741C118.159 33.2112 119.061 33.0561 119.446 32.7458C119.832 32.4356 120.083 32.0037 120.199 31.4502C120.333 30.831 120.401 29.8405 120.401 28.4788C120.401 27.1639 120.293 26.2793 120.076 25.825C119.859 25.3707 119.459 25.068 118.875 24.917C118.291 24.7666 116.639 24.6867 113.921 24.6772H111.891C110.146 24.6772 109.066 24.8064 108.652 25.0649C108.253 25.3034 107.955 25.6733 107.812 26.1074C107.668 26.5441 107.596 27.7061 107.595 29.5934C107.592 30.2111 107.638 30.828 107.733 31.4388C107.824 32.0113 108.068 32.4384 108.464 32.7202C108.859 33.002 109.906 33.1521 111.602 33.1704L116.569 33.2112Z" fill="black"/>
<path d="M128.946 20.5211H144.221C146.786 20.5211 148.462 20.946 149.248 21.7959C150.034 22.6458 150.426 24.0893 150.423 26.1264C150.423 27.4596 150.233 28.469 149.852 29.1546C149.471 29.8402 148.543 30.4035 147.067 30.8445C148.398 31.1542 149.274 31.5743 149.696 32.1051C150.118 32.6359 150.327 33.6993 150.325 35.2954C150.325 36.1124 150.33 36.8024 150.339 37.3654H145.06C145.031 36.755 145.017 36.2435 145.017 35.8309C145.017 34.7226 144.873 34.0067 144.583 33.6832C144.294 33.3597 143.628 33.1976 142.587 33.197H134.226V37.3673H128.946V20.5211ZM134.226 24.8734V28.8447H141.589L143.267 28.803C143.642 28.8086 144.015 28.7466 144.366 28.62C144.885 28.4039 145.145 27.7888 145.145 26.7747C145.145 26.1738 145.005 25.7138 144.725 25.3947C144.446 25.0756 143.872 24.9161 143.004 24.9161L141.456 24.8734H134.226Z" fill="black"/>
<path d="M168.769 37.5625L161.203 37.5208C159.208 37.5113 157.826 37.3891 157.059 37.154C156.298 36.9237 155.619 36.4895 155.1 35.901C154.145 34.8313 153.667 32.6953 153.667 29.493C153.667 27.1734 153.782 25.4623 154.014 24.3597C154.246 23.2571 154.685 22.4142 155.33 21.831C156.054 21.1745 156.977 20.759 158.101 20.5846C159.224 20.4102 161.271 20.3233 164.241 20.324H164.603L168.392 20.3382C170.177 20.3477 171.616 20.4251 172.711 20.5704C173.805 20.7157 174.709 21.1359 175.423 21.831C175.91 22.3239 176.289 22.9087 176.536 23.5493C176.806 24.2248 176.955 25.4361 176.985 27.1832L177.028 29.9432C177.028 32.0915 176.83 33.6431 176.435 34.5978C176.04 35.5526 175.44 36.2732 174.634 36.7597C173.829 37.2488 172.766 37.5117 171.445 37.5483L170.924 37.5625H168.769ZM167.915 33.2112H168.089C169.507 33.2112 170.408 33.0561 170.794 32.7458C171.179 32.4356 171.43 32.0037 171.546 31.4502C171.681 30.831 171.748 29.8405 171.749 28.4788C171.749 27.1639 171.64 26.2793 171.423 25.825C171.205 25.3707 170.805 25.068 170.222 24.917C169.638 24.7666 167.987 24.6867 165.268 24.6772H163.243C161.498 24.6772 160.418 24.8064 160.003 25.0649C159.604 25.3034 159.306 25.6733 159.164 26.1074C159.02 26.5441 158.947 27.7061 158.947 29.5934C158.944 30.2111 158.99 30.828 159.084 31.4388C159.175 32.0113 159.419 32.4384 159.815 32.7202C160.211 33.002 161.257 33.1521 162.953 33.1704L167.915 33.2112Z" fill="black"/>
<path d="M180.298 20.5211H195.572C198.138 20.5211 199.813 20.946 200.599 21.7959C201.385 22.6458 201.778 24.0893 201.778 26.1264C201.778 27.4596 201.588 28.469 201.207 29.1546C200.826 29.8402 199.898 30.4035 198.422 30.8445C199.753 31.1542 200.63 31.5743 201.05 32.1051C201.471 32.6359 201.68 33.6993 201.679 35.2954C201.679 36.1124 201.684 36.8024 201.694 37.3654H196.413C196.384 36.755 196.37 36.2435 196.37 35.8309C196.37 34.7226 196.225 34.0067 195.936 33.6832C195.648 33.3597 194.982 33.1976 193.94 33.197H185.579V37.3673H180.3L180.298 20.5211ZM185.577 24.8734V28.8447H192.94L194.617 28.803C194.993 28.8087 195.366 28.7467 195.717 28.62C196.237 28.4039 196.496 27.7888 196.496 26.7747C196.496 26.1738 196.356 25.7138 196.077 25.3947C195.797 25.0756 195.223 24.9161 194.356 24.9161L192.808 24.8734H185.577Z" fill="black"/>
<path d="M204.18 37.3654L213.741 20.5211H220.438L230 37.3654H224.011L222.405 34.4642H211.73L210.172 37.3654H204.18ZM213.828 30.5346H220.253L217.114 24.8033L213.828 30.5346Z" fill="black"/>
<path d="M84.5942 41.8589H86.1518V45.5402H89.5696V46.8226H84.5952L84.5942 41.8589Z" fill="black"/>
<path d="M91.5886 46.8226L94.4068 41.8589H96.38L99.1972 46.8226H97.4333L96.9602 45.9695H93.814L93.3535 46.8226H91.5886ZM94.4321 44.8094H96.3245L95.3997 43.1205L94.4321 44.8094Z" fill="black"/>
<path d="M101.58 41.8589H104.048L106.985 45.5554V41.8589H108.543V46.8226H106.073L103.136 43.1119V46.8226H101.578L101.58 41.8589Z" fill="black"/>
<path d="M111.256 41.8589H116.004C116.555 41.8589 116.96 41.9307 117.219 42.0741C117.493 42.2363 117.701 42.4849 117.809 42.7783C117.945 43.1031 118.012 43.6626 118.011 44.4569C118.011 45.198 117.938 45.7187 117.792 46.0188C117.669 46.296 117.445 46.5193 117.164 46.6463C116.89 46.7638 116.446 46.8226 115.829 46.8226H111.254L111.256 41.8589ZM112.813 43.1413V45.5402H115.592C115.939 45.5402 116.17 45.4647 116.286 45.3137C116.401 45.1627 116.458 44.8151 116.458 44.2711C116.458 43.7972 116.392 43.4911 116.263 43.3517C116.135 43.2124 115.909 43.1423 115.596 43.1423L112.813 43.1413Z" fill="black"/>
<path d="M126.076 41.8589H130.824C131.375 41.8589 131.78 41.9307 132.038 42.0741C132.312 42.236 132.521 42.4846 132.629 42.7783C132.765 43.1031 132.832 43.6626 132.831 44.4569C132.831 45.198 132.758 45.7187 132.611 46.0188C132.489 46.2963 132.265 46.5197 131.984 46.6463C131.71 46.7638 131.265 46.8226 130.649 46.8226H126.074L126.076 41.8589ZM127.633 43.1413V45.5402H130.412C130.759 45.5402 130.99 45.4647 131.104 45.3137C131.219 45.1627 131.277 44.8151 131.278 44.2711C131.278 43.7972 131.212 43.4911 131.083 43.3517C130.955 43.2124 130.729 43.1423 130.416 43.1423L127.633 43.1413Z" fill="black"/>
<path d="M135.452 46.8226V41.8589H141.057V43.0162H137.008V43.7138H140.836V44.726H137.008V45.6644H141.105V46.8226H135.452Z" fill="black"/>
<path d="M143.428 41.8589H145.166L147.182 45.581L149.227 41.8589H150.923L148.163 46.8226H146.189L143.428 41.8589Z" fill="black"/>
<path d="M153.171 46.8226V41.8589H158.776V43.0162H154.727V43.7138H158.554V44.726H154.727V45.6644H158.823V46.8226H153.171Z" fill="black"/>
<path d="M161.589 41.8589H163.146V45.5402H166.565V46.8226H161.591L161.589 41.8589Z" fill="black"/>
<path d="M173.281 46.8804L171.052 46.8681C170.462 46.8681 170.055 46.832 169.83 46.76C169.606 46.692 169.406 46.5639 169.253 46.3904C168.971 46.0744 168.83 45.4451 168.83 44.5024C168.83 43.8187 168.864 43.3132 168.932 42.9859C168.978 42.7037 169.114 42.4428 169.322 42.2409C169.549 42.041 169.834 41.9128 170.138 41.8732C170.469 41.822 171.072 41.7964 171.947 41.7964H172.054H173.171C173.596 41.7935 174.021 41.8163 174.443 41.8646C174.745 41.8978 175.026 42.0286 175.242 42.2362C175.386 42.3814 175.498 42.5536 175.57 42.7423C175.65 42.9413 175.694 43.2983 175.703 43.8133L175.716 44.6265C175.716 45.2584 175.657 45.7155 175.54 45.998C175.44 46.2611 175.253 46.4848 175.01 46.6349C174.723 46.792 174.399 46.8724 174.07 46.8681H173.917L173.281 46.8804ZM173.029 45.598H173.08C173.498 45.598 173.763 45.5522 173.878 45.4606C173.994 45.3631 174.073 45.229 174.099 45.0815C174.147 44.792 174.167 44.4988 174.159 44.2057C174.159 43.8184 174.127 43.5574 174.062 43.4228C174.028 43.355 173.978 43.2957 173.917 43.2493C173.855 43.203 173.784 43.1709 173.708 43.1555C173.536 43.1113 173.05 43.0876 172.248 43.0845H171.651C171.137 43.0845 170.819 43.1233 170.696 43.1991C170.579 43.2695 170.491 43.3784 170.449 43.5062C170.406 43.6351 170.386 43.9801 170.386 44.5336C170.385 44.7154 170.398 44.897 170.426 45.0767C170.434 45.1507 170.457 45.2225 170.494 45.2876C170.531 45.3528 170.581 45.41 170.641 45.4558C170.758 45.5386 171.066 45.5828 171.566 45.5885L173.029 45.598Z" fill="black"/>
<path d="M178.34 41.8589H182.039C182.83 41.8589 183.358 41.9127 183.625 42.0201C183.889 42.1251 184.102 42.324 184.222 42.5764C184.352 42.8399 184.416 43.2121 184.416 43.6929C184.416 44.3817 184.296 44.8764 184.054 45.1772C183.813 45.478 183.359 45.628 182.691 45.6274H179.891V46.8226H178.333L178.34 41.8589ZM179.898 43.1413V44.345H181.854C182.362 44.345 182.658 44.2979 182.741 44.2038C182.823 44.109 182.865 43.9403 182.865 43.6977C182.872 43.5822 182.848 43.467 182.796 43.3631C182.749 43.286 182.677 43.2267 182.591 43.1953C182.5 43.1593 182.223 43.1413 181.76 43.1413H179.898Z" fill="black"/>
<path d="M186.996 46.8226V41.8589H189.465L191.246 45.0464L193.062 41.8589H195.53V46.8226H193.973V43.2115L191.86 46.8226H190.637L188.553 43.1991V46.8226H186.996Z" fill="black"/>
<path d="M198.275 46.8226V41.8589H203.88V43.0162H199.83V43.7138H203.658V44.726H199.83V45.6644H203.927V46.8226H198.275Z" fill="black"/>
<path d="M206.604 41.8589H209.071L212.008 45.5554V41.8589H213.566V46.8226H211.098L208.161 43.1119V46.8226H206.604V41.8589Z" fill="black"/>
<path d="M215.942 41.8589H221.965V43.1413H219.734V46.8226H218.176V43.1413H215.943L215.942 41.8589Z" fill="black"/>
</g>
<defs>
<clipPath id="clip0_208_93">
<rect width="152" height="29.8803" fill="white" transform="translate(78 17)"/>
</clipPath>
</defs>
</svg>
