<svg width="162" height="142" viewBox="0 0 162 142" fill="none" xmlns="http://www.w3.org/2000/svg">
<path opacity="0.16" d="M121.476 0.000149124C133.641 0.000150187 143.373 4.41156 150.672 13.2344C157.624 22.4102 161.1 34.2329 161.1 48.7024C161.1 68.4656 155.886 86.2878 145.459 102.169C135.374 117.364 120.417 130.24 100.588 140.797C98.2368 142.049 95.3352 141.282 93.8415 139.076C92.1403 136.564 92.8948 133.151 95.3765 131.405C104.008 125.332 112.013 117.352 119.391 107.463C127.733 96.1694 131.904 84.6997 131.904 73.0535C131.904 69.8773 131.035 67.2304 129.297 65.113C127.559 63.3484 124.952 62.4661 121.476 62.4661C112.787 62.4661 105.488 59.2898 99.5794 52.9374C93.3231 46.9378 90.1949 39.5266 90.1949 30.7037C90.1949 21.8808 93.3231 14.4696 99.5794 8.47009C105.488 2.82345 112.787 0.000148364 121.476 0.000149124ZM31.2815 0.000141239C43.4465 0.000142302 53.1785 4.41155 60.4775 13.2344C67.429 22.4102 70.9047 34.2329 70.9047 48.7024C70.9047 68.4656 65.6911 86.2878 55.2639 102.169C45.179 117.364 30.2222 130.24 10.3936 140.797C8.0419 142.049 5.14024 141.282 3.64653 139.076C1.94534 136.564 2.69986 133.151 5.18152 131.405C13.8129 125.332 21.8177 117.352 29.196 107.463C37.5378 96.1694 41.7086 84.6997 41.7086 73.0535C41.7086 69.8773 40.8397 67.2304 39.1018 65.1129C37.364 63.3483 34.7572 62.466 31.2815 62.466C22.5922 62.466 15.2931 59.2898 9.38442 52.9374C3.12814 46.9378 -6.21892e-06 39.5266 -5.4476e-06 30.7037C-4.67628e-06 21.8808 3.12814 14.4696 9.38443 8.47008C15.2931 2.82344 22.5922 0.000140479 31.2815 0.000141239Z" fill="#EA2E81"/>
</svg>
