<svg width="97" height="97" viewBox="0 0 97 97" fill="none" xmlns="http://www.w3.org/2000/svg">
<path d="M46.8861 29.047C46.359 29.8375 45.4716 30.3125 44.5215 30.3125H0V72.9395C0 77.6404 3.82449 81.4648 8.52539 81.4648H21.5848C20.5922 78.5473 20.061 75.4224 20.0826 72.1784C20.1258 65.698 22.4104 59.3733 26.5157 54.3693C30.5599 49.4395 36.2034 45.9778 42.4061 44.6213C43.0061 44.4902 43.6216 44.4235 44.2352 44.4235C47.7285 44.4235 50.9134 46.5947 52.16 49.8262C52.2157 49.9705 52.3444 50.0912 52.4878 50.1337C55.4378 51.0061 57.6962 53.4144 58.3815 56.419C58.646 57.5788 59.7054 58.4203 60.9005 58.4203H60.9457C64.1466 58.4203 67.0319 60.1953 68.4856 63.0559C68.6881 63.3389 69.5291 63.9471 70.5476 64.1977C74.2861 65.1179 76.9053 68.4428 76.9178 72.2832C76.9274 75.4501 76.4197 78.5473 75.4374 81.4648H88.4746C93.1755 81.4648 97 77.6404 97 72.9395V18.9453H53.6205L46.8861 29.047Z" fill="#EA2E81"/>
<path d="M88.4746 1.89453H8.52539C3.82449 1.89453 0 5.71902 0 10.4199V24.6289H43.0006L49.735 14.5273C50.2621 13.7367 51.1495 13.2617 52.0996 13.2617H97V10.4199C97 5.71902 93.1755 1.89453 88.4746 1.89453ZM14.209 16.1035C12.6396 16.1035 11.3672 14.8311 11.3672 13.2617C11.3672 11.6923 12.6396 10.4199 14.209 10.4199C15.7784 10.4199 17.0508 11.6923 17.0508 13.2617C17.0508 14.8311 15.7784 16.1035 14.209 16.1035ZM25.5762 16.1035C24.0067 16.1035 22.7344 14.8311 22.7344 13.2617C22.7344 11.6923 24.0067 10.4199 25.5762 10.4199C27.1456 10.4199 28.418 11.6923 28.418 13.2617C28.418 14.8311 27.1456 16.1035 25.5762 16.1035ZM36.9434 16.1035C35.3739 16.1035 34.1016 14.8311 34.1016 13.2617C34.1016 11.6923 35.3739 10.4199 36.9434 10.4199C38.5128 10.4199 39.7852 11.6923 39.7852 13.2617C39.7852 14.8311 38.5128 16.1035 36.9434 16.1035Z" fill="#EA2E81"/>
<path d="M69.1897 69.7168C66.8458 69.1399 64.4127 67.607 63.4249 65.6426C62.9478 64.694 61.9937 64.0987 60.932 64.104C60.9216 64.104 60.911 64.104 60.9006 64.104C56.9692 64.104 53.679 61.36 52.8403 57.6827C52.6115 56.6792 51.8631 55.8757 50.8761 55.5838C49.0298 55.0378 47.5449 53.6534 46.8576 51.8716C46.361 50.5845 44.9682 49.8789 43.6204 50.1737C33.4591 52.3958 25.8381 61.4051 25.7661 72.2162C25.6833 84.6434 35.7427 94.9262 48.1688 95.1029C60.8763 95.2839 71.2343 85.0371 71.2343 72.371C71.2343 72.3479 71.2343 72.3248 71.2341 72.3017C71.2301 71.075 70.3808 70.0099 69.1897 69.7168ZM40.7324 65.3613C42.3018 65.3613 43.5742 66.6336 43.5742 68.203C43.5742 69.7725 42.3018 71.0448 40.7324 71.0448C39.1629 71.0448 37.8906 69.7725 37.8906 68.203C37.8906 66.6336 39.1629 65.3613 40.7324 65.3613ZM40.9218 83.1698C39.3524 83.1698 38.08 81.8975 38.08 80.328C38.08 78.7586 39.3524 77.4863 40.9218 77.4863C42.4912 77.4863 43.7636 78.7586 43.7636 80.328C43.7636 81.8975 42.4912 83.1698 40.9218 83.1698ZM56.0781 82.412C54.5086 82.412 53.2363 81.1397 53.2363 79.5702C53.2363 78.0008 54.5086 76.7284 56.0781 76.7284C57.6475 76.7284 58.9199 78.0008 58.9199 79.5702C58.9199 81.1397 57.6475 82.412 56.0781 82.412Z" fill="black"/>
</svg>
