<svg width="868" height="868" viewBox="0 0 868 868" fill="none" xmlns="http://www.w3.org/2000/svg">
<path d="M714.084 271.4V402.359H579.879L493.906 350.771L432.511 313.936L330.952 374.86L330.746 374.988L331.364 375.35L431.952 495.895L280.59 405.082L279.549 404.445V345.52L280.59 344.893L297.482 334.754L382.345 283.842L432.56 253.757L482.658 283.842L594.219 350.771H662.396V300.574L558.579 238.298L508.423 208.204L432.56 163.16L357.62 208.821L307.464 238.915L205.699 299.967L204.678 300.603V431.17H153V331.58V328.533V271.4L155.552 269.872L204.678 240.395L257.308 208.821L307.464 178.726L383.386 133.173L432.56 103L483.698 133.173L558.579 178.109L608.736 208.204L662.396 240.395L714.084 271.4Z" fill="#EA2E81"/>
<path d="M153 594.878V463.92H287.195L373.168 515.498L434.572 552.342L536.122 491.418L536.338 491.291L535.71 490.919L435.122 370.384L586.484 461.196H586.494L587.535 461.833V520.758L586.494 521.385L569.592 531.515L484.729 582.437L434.514 612.521L384.416 582.437L272.855 515.498H204.678V565.704L308.494 627.98L358.651 658.075L434.514 703.119L509.454 657.458L559.61 627.363L661.375 566.312L662.396 565.724V435.108H714.084V534.699V538.353V537.745V594.878L711.522 596.406L662.396 625.884L609.766 657.458L559.61 687.552L483.698 733.106L434.514 763.278L383.386 733.106L308.494 688.169L258.338 658.075L204.678 625.884L153 594.878Z" fill="black"/>
</svg>
