<svg width="93" height="93" viewBox="0 0 93 93" fill="none" xmlns="http://www.w3.org/2000/svg">
<g clip-path="url(#clip0_437_2066)">
<path d="M7.72461 93.1602H57.1308C58.6358 93.1602 59.8555 91.9405 59.8555 90.4355V87.5293C59.8555 84.5195 57.4161 82.0801 54.4062 82.0801V78.8226C54.4062 74.5094 50.8969 71 46.5836 71H18.2718C13.9586 71 10.4492 74.5094 10.4492 78.8226V82.0801C7.43938 82.0801 5 84.5195 5 87.5293V90.4355C5 91.9398 6.2204 93.1602 7.72461 93.1602Z" fill="black"/>
<path d="M34.1 60.0038C35.9107 62.407 39.3279 62.8873 41.731 61.0759C44.1349 59.2651 44.6146 55.848 42.8039 53.4441L26.4065 31.6849C24.5951 29.281 21.1787 28.8013 18.7755 30.6121C16.3716 32.4235 15.8913 35.8399 17.7027 38.2438L34.1 60.0038Z" fill="#E20D6E"/>
<path d="M73.2668 30.4887C75.0783 32.8919 78.4947 33.3723 80.8986 31.5608C83.3018 29.7501 83.7821 26.3337 81.9707 23.9298L65.5734 2.17053C63.7626 -0.233374 60.3455 -0.713728 57.9423 1.09771C55.5391 2.90915 55.0588 6.32555 56.8702 8.72945L73.2668 30.4887Z" fill="#E20D6E"/>
<path d="M61.3148 46.3182C65.3421 43.2836 68.3654 39.5152 70.2563 35.5475L51.177 10.2285C46.8417 10.9529 42.3866 12.8197 38.3585 15.8551C34.3312 18.8898 31.3079 22.6581 29.417 26.6251L48.4963 51.9455C52.8316 51.2211 57.2868 49.3536 61.3148 46.3182Z" fill="#E20D6E"/>
<path d="M68.6719 47.0278C67.4032 48.3206 66.0672 49.5602 64.5942 50.6706C63.1205 51.7803 61.5602 52.7233 59.9688 53.5868L63.5214 58.3016L72.2252 51.7434L68.6719 47.0278Z" fill="#E20D6E"/>
<path d="M75.5051 56.095L66.8013 62.6532L83.1986 84.4132C85.01 86.8171 88.4264 87.2967 90.8296 85.486C93.2335 83.6745 93.7132 80.2581 91.9024 77.8542L75.5051 56.095Z" fill="#E20D6E"/>
</g>
<defs>
<clipPath id="clip0_437_2066">
<rect width="93" height="93" fill="white"/>
</clipPath>
</defs>
</svg>
