<svg width="86" height="86" viewBox="0 0 86 86" fill="none" xmlns="http://www.w3.org/2000/svg">
<path d="M75.5859 14.2773C75.5859 9.18336 71.4416 5.03906 66.3477 5.03906H64.5V12.5977C64.5 13.9891 63.3719 15.1172 61.9805 15.1172C60.589 15.1172 59.4609 13.9891 59.4609 12.5977V5.03906H48.375V12.5977C48.375 13.9891 47.2469 15.1172 45.8555 15.1172C44.464 15.1172 43.3359 13.9891 43.3359 12.5977V5.03906H32.25V12.5977C32.25 13.9891 31.1219 15.1172 29.7305 15.1172C28.339 15.1172 27.2109 13.9891 27.2109 12.5977V5.03906H16.125V12.5977C16.125 13.9891 14.9969 15.1172 13.6055 15.1172C12.214 15.1172 11.0859 13.9891 11.0859 12.5977V5.03906H9.23828C4.14429 5.03906 0 9.18336 0 14.2773V21.8359H75.5859V14.2773Z" fill="#E20D6E"/>
<path d="M16.125 2.51953C16.125 1.12808 14.9969 0 13.6055 0C12.214 0 11.0859 1.12808 11.0859 2.51953V5.03906H16.125V2.51953Z" fill="#E20D6E"/>
<path d="M64.5 2.51953C64.5 1.12808 63.3719 0 61.9805 0C60.589 0 59.4609 1.12808 59.4609 2.51953V5.03906H64.5V2.51953Z" fill="#E20D6E"/>
<path d="M48.375 2.51953C48.375 1.12808 47.2469 0 45.8555 0C44.464 0 43.3359 1.12808 43.3359 2.51953V5.03906H48.375V2.51953Z" fill="#E20D6E"/>
<path d="M32.25 2.51953C32.25 1.12808 31.1219 0 29.7305 0C28.339 0 27.2109 1.12808 27.2109 2.51953V5.03906H32.25V2.51953Z" fill="#E20D6E"/>
<path d="M67.5234 44.0078C70.3544 44.0078 73.0701 44.5109 75.5859 45.4319V26.875H0V64.668C0 68.8358 3.39079 72.2266 7.55859 72.2266H44.4806C44.1709 70.7064 44.0078 69.1336 44.0078 67.5234C44.0078 54.5569 54.5569 44.0078 67.5234 44.0078ZM58.1172 35.6934H62.3164C63.7079 35.6934 64.8359 36.8214 64.8359 38.2129C64.8359 39.6043 63.7079 40.7324 62.3164 40.7324H58.1172C56.7257 40.7324 55.5977 39.6043 55.5977 38.2129C55.5977 36.8214 56.7257 35.6934 58.1172 35.6934ZM43.168 35.6934H47.3672C48.7586 35.6934 49.8867 36.8214 49.8867 38.2129C49.8867 39.6043 48.7586 40.7324 47.3672 40.7324H43.168C41.7765 40.7324 40.6484 39.6043 40.6484 38.2129C40.6484 36.8214 41.7765 35.6934 43.168 35.6934ZM17.4688 63.4082H13.2695C11.8781 63.4082 10.75 62.2801 10.75 60.8887C10.75 59.4972 11.8781 58.3691 13.2695 58.3691H17.4688C18.8602 58.3691 19.9883 59.4972 19.9883 60.8887C19.9883 62.2801 18.8602 63.4082 17.4688 63.4082ZM17.4688 52.0703H13.2695C11.8781 52.0703 10.75 50.9422 10.75 49.5508C10.75 48.1593 11.8781 47.0312 13.2695 47.0312H17.4688C18.8602 47.0312 19.9883 48.1593 19.9883 49.5508C19.9883 50.9422 18.8602 52.0703 17.4688 52.0703ZM32.418 63.4082H28.2188C26.8273 63.4082 25.6992 62.2801 25.6992 60.8887C25.6992 59.4972 26.8273 58.3691 28.2188 58.3691H32.418C33.8094 58.3691 34.9375 59.4972 34.9375 60.8887C34.9375 62.2801 33.8094 63.4082 32.418 63.4082ZM32.418 52.0703H28.2188C26.8273 52.0703 25.6992 50.9422 25.6992 49.5508C25.6992 48.1593 26.8273 47.0312 28.2188 47.0312H32.418C33.8094 47.0312 34.9375 48.1593 34.9375 49.5508C34.9375 50.9422 33.8094 52.0703 32.418 52.0703ZM32.418 40.7324H28.2188C26.8273 40.7324 25.6992 39.6043 25.6992 38.2129C25.6992 36.8214 26.8273 35.6934 28.2188 35.6934H32.418C33.8094 35.6934 34.9375 36.8214 34.9375 38.2129C34.9375 39.6043 33.8094 40.7324 32.418 40.7324ZM40.6484 49.5508C40.6484 48.1593 41.7765 47.0312 43.168 47.0312H47.3672C48.7586 47.0312 49.8867 48.1593 49.8867 49.5508C49.8867 50.9422 48.7586 52.0703 47.3672 52.0703H43.168C41.7765 52.0703 40.6484 50.9422 40.6484 49.5508Z" fill="#E20D6E"/>
<path d="M67.5234 49.0469C57.3355 49.0469 49.0469 57.3355 49.0469 67.5234C49.0469 77.7114 57.3355 86 67.5234 86C77.7114 86 86 77.7114 86 67.5234C86 57.3355 77.7114 49.0469 67.5234 49.0469ZM75.9219 70.043H67.5234C66.132 70.043 65.0039 68.9149 65.0039 67.5234V59.125C65.0039 57.7335 66.132 56.6055 67.5234 56.6055C68.9149 56.6055 70.043 57.7335 70.043 59.125V65.0039H75.9219C77.3133 65.0039 78.4414 66.132 78.4414 67.5234C78.4414 68.9149 77.3133 70.043 75.9219 70.043Z" fill="black"/>
</svg>
