<svg width="75" height="94" viewBox="0 0 75 94" fill="none" xmlns="http://www.w3.org/2000/svg">
<path d="M10.0923 17.3072C10.0923 15.1486 11.8387 13.3827 14.0168 13.3827H60.4636C62.6417 13.3827 64.3881 15.1486 64.3881 17.3072V24.9404H68.9602V10.3607C68.9602 9.18338 67.9987 8.22189 66.8213 8.22189H32.619C30.2839 8.22189 28.1843 6.92673 27.1247 4.86638L25.2605 1.21659C24.8681 0.470924 24.1029 0 23.2591 0H7.73754C6.54059 0 5.5791 0.96149 5.5791 2.1388V24.9404H10.0923V17.3072Z" fill="#EA2E81"/>
<path d="M14.0166 17.3069H60.4634V24.9401H14.0166V17.3069Z" fill="#EA2E81"/>
<path d="M72.2375 28.865H2.24357C0.926614 28.865 -0.186502 30.0314 0.0262047 31.4356L5.10852 65.8143C5.26542 66.9328 6.20738 67.757 7.32577 67.757H13.9191V52.5887C13.9191 49.4295 16.4111 46.8393 19.6096 46.7215C25.6534 46.4272 30.2646 45.0537 33.6202 42.5026C34.719 41.6982 35.9553 41.286 37.2503 41.286C38.5258 41.286 39.7621 41.6982 40.8216 42.4635C44.2164 45.0537 48.8277 46.4272 54.9303 46.7412C58.0504 46.8393 60.5425 49.4295 60.5425 52.5887V67.757H67.1553C68.2542 67.757 69.2157 66.9328 69.3727 65.834L74.4549 31.4356C74.6651 30.0482 73.5737 28.865 72.2375 28.865Z" fill="#EA2E81"/>
<path d="M54.7343 50.6525C48.3962 50.3386 42.8233 48.906 38.4867 45.6291C37.741 45.0797 36.7404 45.0797 35.9947 45.6291C31.658 48.906 26.0852 50.3386 19.7471 50.6525C18.6875 50.6917 17.8438 51.5551 17.8438 52.5951V68.2148C17.8438 75.2004 20.6105 82.0095 25.7713 86.7385C30.1863 90.8004 34.7388 92.9589 36.4853 93.6849C36.9758 93.9008 37.5056 93.9008 37.9961 93.6849C39.6838 92.9785 43.9418 90.977 48.2196 87.1898C48.2589 87.1702 48.2785 87.1114 48.3177 87.0917C53.6942 82.3627 56.6181 75.3771 56.6181 68.1951V52.5951C56.6181 51.5551 55.7939 50.6917 54.7343 50.6525ZM40.3244 69.2263C39.921 69.5625 39.7195 70.0666 39.7866 70.5876C40.0051 72.0328 40.4252 74.8898 40.6941 76.7217C40.8285 77.6292 40.1227 78.4358 39.1985 78.4358H35.2827C34.3584 78.4358 33.6526 77.6292 33.7869 76.7048L34.6777 70.5876C34.7617 70.0835 34.5769 69.5625 34.1735 69.2432C33.0811 68.3524 32.3922 66.9911 32.3922 65.4787C32.3922 62.2856 35.5011 59.7816 38.812 60.874C40.2404 61.3444 41.3831 62.504 41.8369 63.9157C42.5091 66.0164 41.7696 68.0332 40.3244 69.2263Z" fill="black"/>
</svg>
