<svg width="97" height="97" viewBox="0 0 97 97" fill="none" xmlns="http://www.w3.org/2000/svg">
<g clip-path="url(#clip0_437_2078)">
<path d="M73.7944 16.5624C73.7944 14.2867 72.9062 12.1443 71.2966 10.5347L63.2597 2.49775C61.6724 0.910322 59.4193 0 57.1769 0H56.6885V17.0508H73.7946L73.7944 16.5624Z" fill="#E20D6E"/>
<path d="M51.8982 58.6427C52.4421 56.9915 53.3913 55.4541 54.629 54.208L73.8702 35.0443V22.7344H53.9019C52.3311 22.7344 51.1523 21.4633 51.1523 19.8926V0H8.52539C3.8243 0 0 3.8243 0 8.52539V88.4746C0 93.1757 3.8243 97 8.52539 97H65.2691C69.9701 97 73.8702 93.1757 73.8702 88.4746V67.2651L70.7473 70.3123C69.4819 71.5667 68 72.4797 66.3292 73.0376L57.2933 76.0543L55.9167 76.1293C53.641 76.1293 51.4875 75.0219 50.1499 73.1681C48.8234 71.3227 48.4627 68.9304 49.1841 66.7686L51.8982 58.6427ZM14.209 51.1523H42.5347C44.1054 51.1523 45.3765 52.4234 45.3765 53.9941C45.3765 55.5649 44.1054 56.8359 42.5347 56.8359H14.209C12.6382 56.8359 11.3672 55.5649 11.3672 53.9941C11.3672 52.4234 12.6382 51.1523 14.209 51.1523ZM11.3672 42.627C11.3672 41.0562 12.6382 39.7852 14.209 39.7852H42.5347C44.1054 39.7852 45.3765 41.0562 45.3765 42.627C45.3765 44.1977 44.1054 45.4688 42.5347 45.4688H14.209C12.6382 45.4688 11.3672 44.1977 11.3672 42.627ZM11.3672 65.3613C11.3672 63.7906 12.6382 62.5195 14.209 62.5195H42.5347C44.1054 62.5195 45.3765 63.7906 45.3765 65.3613C45.3765 66.9321 44.1054 68.2031 42.5347 68.2031H14.209C12.6382 68.2031 11.3672 66.9321 11.3672 65.3613ZM53.9019 79.5703C55.4726 79.5703 56.7437 80.8414 56.7437 82.4121C56.7437 83.9829 55.4728 85.2539 53.9019 85.2539H36.8511C35.2803 85.2539 34.0093 83.9829 34.0093 82.4121C34.0093 80.8414 35.2803 79.5703 36.8511 79.5703H53.9019ZM14.209 34.1016C12.6382 34.1016 11.3672 32.8305 11.3672 31.2598C11.3672 29.689 12.6382 28.418 14.209 28.418H53.9019C55.4726 28.418 56.7437 29.689 56.7437 31.2598C56.7437 32.8305 55.4726 34.1016 53.9019 34.1016H14.209Z" fill="#E20D6E"/>
<path d="M57.0463 61.157L54.574 68.5743C54.2034 69.6854 55.2608 70.7424 56.3719 70.3712L63.7848 67.8954L57.0463 61.157Z" fill="black"/>
<path d="M79.1173 37.7593L60.4014 56.4752L68.473 64.5468C72.7031 60.3159 80.9339 52.084 87.188 45.83L79.1173 37.7593Z" fill="black"/>
<path d="M95.3301 29.6085C94.3311 28.6038 92.8602 28.0294 91.3004 28.0294C89.7406 28.0294 88.2699 28.6038 87.2653 29.6114L83.1357 33.7409L91.2061 41.8112C93.4668 39.5503 95.0294 37.9876 95.336 37.6813C97.5558 35.4581 97.5556 31.8369 95.3301 29.6085Z" fill="black"/>
<path d="M95.3354 37.6815L95.3358 37.6811C95.343 37.6739 95.3463 37.6707 95.3521 37.6648C95.3463 37.6709 95.343 37.6741 95.3354 37.6815Z" fill="black"/>
<path d="M95.3521 37.6648C95.3611 37.6558 95.3718 37.6451 95.3772 37.6396C95.3716 37.6453 95.3611 37.6558 95.3521 37.6648Z" fill="black"/>
<path d="M95.3774 37.6397C95.3958 37.6213 95.3962 37.6209 95.3774 37.6397V37.6397Z" fill="black"/>
</g>
<defs>
<clipPath id="clip0_437_2078">
<rect width="97" height="97" fill="white"/>
</clipPath>
</defs>
</svg>
