<svg width="88" height="88" viewBox="0 0 88 88" fill="none" xmlns="http://www.w3.org/2000/svg">
<path d="M46.75 60.5C44.7194 60.5 42.9656 59.387 42.0129 57.75H15.125C14.365 57.75 13.75 57.135 13.75 56.375C13.75 55.615 14.365 55 15.125 55H41.25V49.5H15.125C14.365 49.5 13.75 48.885 13.75 48.125C13.75 47.365 14.365 46.75 15.125 46.75H41.25V41.25H15.125C14.365 41.25 13.75 40.635 13.75 39.875C13.75 39.115 14.365 38.5 15.125 38.5H41.25V33H15.125C14.365 33 13.75 32.385 13.75 31.625C13.75 30.865 14.365 30.25 15.125 30.25H41.25V5.5H22V19.25C22 20.7687 20.7688 22 19.25 22H5.5V79.75C5.5 81.2687 6.73132 82.5 8.25 82.5H55C56.5188 82.5 57.75 81.2687 57.75 79.75V60.5H46.75ZM48.125 74.25H15.125C14.365 74.25 13.75 73.635 13.75 72.875C13.75 72.115 14.365 71.5 15.125 71.5H48.125C48.885 71.5 49.5 72.115 49.5 72.875C49.5 73.635 48.885 74.25 48.125 74.25ZM48.125 66H15.125C14.365 66 13.75 65.385 13.75 64.625C13.75 63.865 14.365 63.25 15.125 63.25H48.125C48.885 63.25 49.5 63.865 49.5 64.625C49.5 65.385 48.885 66 48.125 66Z" fill="#EA2E81"/>
<path d="M79.75 5.5H46.75C45.2313 5.5 44 6.73116 44 8.25V55C44 56.5187 45.2313 57.75 46.75 57.75H79.75C81.2688 57.75 82.5 56.5187 82.5 55V8.25C82.5 6.73116 81.2688 5.5 79.75 5.5ZM60.0972 43.5972L54.5972 49.0972C54.3286 49.3657 53.9768 49.5 53.625 49.5C53.2732 49.5 52.9214 49.3657 52.6528 49.0972L49.9028 46.3472C49.3657 45.8101 49.3657 44.9399 49.9028 44.4028C50.4399 43.8657 51.3101 43.8657 51.8472 44.4028L53.625 46.1807L58.1528 41.6528C58.6899 41.1157 59.5601 41.1157 60.0972 41.6528C60.6343 42.1899 60.6343 43.0601 60.0972 43.5972ZM60.0972 29.8472L54.5972 35.3472C54.3286 35.6157 53.9768 35.75 53.625 35.75C53.2732 35.75 52.9214 35.6157 52.6528 35.3472L49.9028 32.5972C49.3657 32.0601 49.3657 31.1899 49.9028 30.6528C50.4399 30.1157 51.3101 30.1157 51.8472 30.6528L53.625 32.4307L58.1528 27.9028C58.6899 27.3657 59.5601 27.3657 60.0972 27.9028C60.6343 28.4399 60.6343 29.3101 60.0972 29.8472ZM60.0972 16.0972L54.5972 21.5972C54.3286 21.8657 53.9768 22 53.625 22C53.2732 22 52.9214 21.8657 52.6528 21.5972L49.9028 18.8472C49.3657 18.3101 49.3657 17.4399 49.9028 16.9028C50.4399 16.3657 51.3101 16.3657 51.8472 16.9028L53.625 18.6807L58.1528 14.1528C58.6899 13.6157 59.5601 13.6157 60.0972 14.1528C60.6343 14.6899 60.6343 15.5601 60.0972 16.0972Z" fill="black"/>
<path d="M5.5 19.25H19.25V5.5L5.5 19.25Z" fill="#EA2E81"/>
</svg>
