<svg width="129" height="101" viewBox="0 0 129 101" fill="none" xmlns="http://www.w3.org/2000/svg">
<path d="M112.66 18.9375C112.66 17.1064 111.933 15.3502 110.638 14.0554C109.343 12.7606 107.587 12.0332 105.756 12.0332H22.9043C21.0732 12.0332 19.317 12.7606 18.0222 14.0554C16.7274 15.3502 16 17.1064 16 18.9375V24.9699H112.66V18.9375Z" fill="#EA2E81"/>
<path d="M73.6016 49.9734C73.6042 47.6199 74.5403 45.3635 76.2044 43.6993C77.8686 42.0351 80.125 41.099 82.4785 41.0964C85.2005 41.1011 87.8559 40.2548 90.0732 38.676L93.121 36.5061C94.6227 35.4396 96.4189 34.8667 98.2607 34.8667C100.103 34.8667 101.899 35.4396 103.401 36.5061L106.446 38.676C108.28 39.9841 110.42 40.7955 112.66 41.0313V30.8879H16V72.2447C16 74.0758 16.7274 75.8319 18.0222 77.1268C19.317 78.4216 21.0732 79.149 22.9043 79.149H77.6435C74.9835 74.2886 73.5932 68.8354 73.6016 63.2947V49.9734ZM29.5107 44.7419H31.4439C31.8325 44.7419 32.2173 44.8184 32.5763 44.9671C32.9353 45.1158 33.2615 45.3338 33.5362 45.6086C33.811 45.8833 34.029 46.2095 34.1777 46.5685C34.3264 46.9275 34.4029 47.3123 34.4029 47.7009C34.4029 48.0895 34.3264 48.4742 34.1777 48.8332C34.029 49.1922 33.811 49.5184 33.5362 49.7932C33.2615 50.068 32.9353 50.2859 32.5763 50.4346C32.2173 50.5833 31.8325 50.6599 31.4439 50.6599H29.5107C29.1221 50.6599 28.7374 50.5833 28.3784 50.4346C28.0194 50.2859 27.6932 50.068 27.4184 49.7932C27.1436 49.5184 26.9257 49.1922 26.777 48.8332C26.6283 48.4742 26.5517 48.0895 26.5517 47.7009C26.5517 47.3123 26.6283 46.9275 26.777 46.5685C26.9257 46.2095 27.1436 45.8833 27.4184 45.6086C27.6932 45.3338 28.0194 45.1158 28.3784 44.9671C28.7374 44.8184 29.1221 44.7419 29.5107 44.7419ZM54.8337 63.3224H29.5107C28.726 63.3224 27.9733 63.0106 27.4184 62.4557C26.8635 61.9008 26.5517 61.1481 26.5517 60.3634C26.5517 59.5786 26.8635 58.826 27.4184 58.2711C27.9733 57.7161 28.726 57.4044 29.5107 57.4044H54.8337C55.6185 57.4044 56.3711 57.7161 56.926 58.2711C57.4809 58.826 57.7927 59.5786 57.7927 60.3634C57.7927 61.1481 57.4809 61.9008 56.926 62.4557C56.3711 63.0106 55.6185 63.3224 54.8337 63.3224ZM54.8337 50.6599H43.051C42.2663 50.6599 41.5136 50.3481 40.9587 49.7932C40.4038 49.2383 40.0921 48.4857 40.0921 47.7009C40.0921 46.9161 40.4038 46.1635 40.9587 45.6086C41.5136 45.0537 42.2663 44.7419 43.051 44.7419H54.8337C55.6185 44.7419 56.3711 45.0537 56.926 45.6086C57.4809 46.1635 57.7927 46.9161 57.7927 47.7009C57.7927 48.4857 57.4809 49.2383 56.926 49.7932C56.3711 50.3481 55.6185 50.6599 54.8337 50.6599Z" fill="#EA2E81"/>
<path d="M114.041 47.0144C110.091 47.021 106.239 45.7926 103.022 43.5011L99.972 41.3311C99.4717 40.9761 98.8733 40.7854 98.2598 40.7854C97.6462 40.7854 97.0479 40.9761 96.5475 41.3311L93.4978 43.5011C90.2809 45.7926 86.4281 47.021 82.4785 47.0144C81.6937 47.0144 80.9411 47.3261 80.3862 47.881C79.8313 48.436 79.5195 49.1886 79.5195 49.9734V63.2947C79.5193 68.842 81.2156 74.2568 84.3809 78.8124C87.5462 83.368 92.0291 86.8466 97.2281 88.7814C97.8936 89.029 98.6259 89.029 99.2915 88.7814C104.49 86.8466 108.973 83.368 112.139 78.8124C115.304 74.2568 117 68.842 117 63.2947V49.9734C117 49.1886 116.688 48.436 116.133 47.881C115.578 47.3261 114.826 47.0144 114.041 47.0144ZM106.399 62.766L99.2303 70.9032C98.9526 71.2184 98.611 71.4709 98.2282 71.6438C97.8454 71.8167 97.4301 71.9062 97.0101 71.9062C96.59 71.9062 96.1748 71.8167 95.792 71.6438C95.4092 71.4709 95.0675 71.2184 94.7899 70.9032L90.1206 65.6047C89.8637 65.313 89.6668 64.9736 89.5412 64.6058C89.4155 64.238 89.3635 63.8491 89.3881 63.4612C89.4379 62.6778 89.7968 61.9463 90.3859 61.4276C90.975 60.9088 91.746 60.6454 92.5294 60.6951C93.3128 60.7449 94.0443 61.1038 94.563 61.6929L97.0091 64.4704L101.957 58.8542C102.475 58.2651 103.207 57.9062 103.99 57.8565C104.773 57.8067 105.545 58.0702 106.134 58.5889C106.723 59.1077 107.082 59.8392 107.131 60.6225C107.181 61.4059 106.918 62.1769 106.399 62.766Z" fill="black"/>
</svg>
