<svg width="94" height="94" viewBox="0 0 94 94" fill="none" xmlns="http://www.w3.org/2000/svg">
<g clip-path="url(#clip0_437_1872)">
<path d="M47.0001 21.3635C52.8995 21.3635 57.6819 16.5811 57.6819 10.6818C57.6819 4.78239 52.8995 0 47.0001 0C41.1007 0 36.3184 4.78239 36.3184 10.6818C36.3184 16.5811 41.1007 21.3635 47.0001 21.3635Z" fill="#EA2E81"/>
<path d="M32.3498 42.7273H61.6497C64.1741 42.7273 66.227 40.5115 66.227 37.7869V36.4183C66.227 32.8487 64.4599 29.5878 61.6121 27.9083C58.201 25.897 52.8977 23.5 46.9997 23.5C41.1018 23.5 35.7984 25.8972 32.3874 27.9083C29.5396 29.5876 27.7725 32.8487 27.7725 36.4183V37.7869C27.7725 40.5117 29.8254 42.7273 32.3498 42.7273Z" fill="#EA2E81"/>
<path d="M19.2277 72.6362C25.127 72.6362 29.9094 67.8538 29.9094 61.9545C29.9094 56.0551 25.127 51.2727 19.2277 51.2727C13.3283 51.2727 8.5459 56.0551 8.5459 61.9545C8.5459 67.8538 13.3283 72.6362 19.2277 72.6362Z" fill="#EA2E81"/>
<path d="M33.8396 79.1812C30.4286 77.1699 25.1253 74.7729 19.2273 74.7729C13.3293 74.7729 8.02599 77.1701 4.61495 79.1812C1.76711 80.8606 0 84.1214 0 87.6911V89.0596C0 91.7843 2.05291 94 4.5773 94H33.8773C36.4017 94 38.4546 91.7843 38.4546 89.0596V87.6911C38.4546 84.1214 36.6875 80.8606 33.8396 79.1812Z" fill="#EA2E81"/>
<path d="M74.7726 72.6362C80.672 72.6362 85.4543 67.8538 85.4543 61.9545C85.4543 56.0551 80.672 51.2727 74.7726 51.2727C68.8732 51.2727 64.0908 56.0551 64.0908 61.9545C64.0908 67.8538 68.8732 72.6362 74.7726 72.6362Z" fill="#EA2E81"/>
<path d="M89.3855 79.1812C85.9745 77.1699 80.6712 74.7729 74.7732 74.7729C68.8752 74.7729 63.5719 77.1701 60.1608 79.1812C57.313 80.8606 55.5459 84.1216 55.5459 87.6913V89.0598C55.5459 91.7845 57.5988 94.0002 60.1232 94.0002H89.4232C91.9476 94.0002 94.0005 91.7845 94.0005 89.0598V87.6913C94.0003 84.1214 92.2332 80.8606 89.3855 79.1812Z" fill="#EA2E81"/>
<path d="M57.6798 72.6364C58.3077 72.6364 58.9274 72.361 59.351 71.8352C60.0874 70.9131 59.9372 69.5694 59.0171 68.831L49.1365 60.9266V49.1364C49.1365 47.9556 48.1809 47 47.0001 47C45.8192 47 44.8636 47.9554 44.8636 49.1362V60.928L34.983 68.8308C34.0629 69.5694 33.9127 70.9129 34.6491 71.835C35.0727 72.3608 35.6922 72.6362 36.3203 72.6362C36.7876 72.6362 37.2592 72.484 37.6534 72.1689L47.0001 64.6917L56.3465 72.1689C56.7409 72.484 57.2123 72.6364 57.6798 72.6364Z" fill="black"/>
</g>
<defs>
<clipPath id="clip0_437_1872">
<rect width="94" height="94" fill="white"/>
</clipPath>
</defs>
</svg>
