<svg width="83" height="83" viewBox="0 0 83 83" fill="none" xmlns="http://www.w3.org/2000/svg">
<path d="M75.1493 45.3733C72.1103 44.5935 69.165 43.4861 66.3651 42.0706C65.5005 41.6383 64.7051 41.2233 63.9788 40.8256C62.5436 40.0302 61.4024 39.3212 60.6588 38.837C60.6165 38.8072 60.5698 38.7839 60.5205 38.7679C59.9723 38.4484 59.3468 38.2858 58.7125 38.298C58.0781 38.3102 57.4593 38.4967 56.9238 38.837C52.4622 41.7547 47.5735 43.9598 42.4334 45.3733C41.6767 45.5571 41.0034 45.9891 40.5207 46.6002C40.0381 47.2113 39.774 47.9664 39.7705 48.7452V51.702C39.7687 55.9723 40.8222 60.1769 42.8374 63.9418C44.8526 67.7067 47.767 70.9152 51.3213 73.282L52.9295 74.3541L56.872 76.9825C57.1845 77.1883 57.5294 77.3403 57.8922 77.432H57.9095C58.193 77.5297 58.4915 77.5766 58.7913 77.5704C59.4746 77.5645 60.1414 77.3603 60.7107 76.9825L66.2613 73.282C69.8157 70.9152 72.7301 67.7067 74.7453 63.9418C76.7605 60.1769 77.814 55.9723 77.8122 51.702V48.7452C77.8087 47.9664 77.5446 47.2113 77.062 46.6002C76.5793 45.9891 75.906 45.5571 75.1493 45.3733ZM65.2066 54.8318L58.2899 61.7485C57.9621 62.07 57.5213 62.25 57.0622 62.25C56.6031 62.25 56.1623 62.07 55.8345 61.7485L52.3761 58.2902C52.0505 57.9646 51.8676 57.5229 51.8676 57.0625C51.8676 56.602 52.0505 56.1604 52.3761 55.8347C52.7017 55.5091 53.1434 55.3262 53.6038 55.3262C54.0643 55.3262 54.5059 55.5091 54.8316 55.8347L57.0622 58.0827L62.7511 52.3764C62.9124 52.2152 63.1038 52.0873 63.3144 52C63.5251 51.9128 63.7508 51.8679 63.9788 51.8679C64.2069 51.8679 64.4326 51.9128 64.6433 52C64.8539 52.0873 65.0453 52.2152 65.2066 52.3764C65.3678 52.5376 65.4957 52.729 65.5829 52.9397C65.6702 53.1503 65.7151 53.3761 65.7151 53.6041C65.7151 53.8321 65.6702 54.0579 65.5829 54.2685C65.4957 54.4792 65.3678 54.6706 65.2066 54.8318Z" fill="black"/>
<path d="M61.5238 22.8941L46.7394 7.78123C46.2087 7.24425 45.6099 6.77917 44.9583 6.3979V19.0208C44.9624 20.3954 45.5103 21.7124 46.4823 22.6844C47.4542 23.6564 48.7713 24.2042 50.1458 24.2083H62.5785C62.2666 23.7399 61.9136 23.3001 61.5238 22.8941ZM63.8754 27.6666H50.1458C47.8528 27.6666 45.6537 26.7558 44.0323 25.1343C42.4109 23.5129 41.5 21.3138 41.5 19.0208V5.25665C41.1912 5.20783 40.8789 5.1847 40.5662 5.18748H13.8333C11.5403 5.18748 9.34121 6.09838 7.71981 7.71979C6.0984 9.34119 5.1875 11.5403 5.1875 13.8333V69.1666C5.1875 71.4597 6.0984 73.6588 7.71981 75.2802C9.34121 76.9016 11.5403 77.8125 13.8333 77.8125H51.8923L49.4023 76.1525C45.3733 73.4725 42.0698 69.8376 39.7859 65.5716C37.5021 61.3056 36.3088 56.5409 36.3125 51.7021V48.7452C36.3132 47.6758 36.5618 46.6211 37.0388 45.664C37.5159 44.7069 38.2084 43.8735 39.0619 43.2291H17.2917C16.8331 43.2291 16.3932 43.047 16.069 42.7227C15.7447 42.3984 15.5625 41.9586 15.5625 41.5C15.5625 41.0414 15.7447 40.6016 16.069 40.2773C16.3932 39.953 16.8331 39.7708 17.2917 39.7708H47.9671C50.4156 38.6667 52.7794 37.3836 55.0394 35.9321C56.0532 35.288 57.216 34.9161 58.4155 34.8525C59.615 34.7889 60.8106 35.0357 61.8869 35.5689L62.0079 35.6208L62.5267 35.9321C62.8898 36.1741 63.374 36.4681 63.9792 36.8312V28.9462C63.9797 28.5176 63.945 28.0896 63.8754 27.6666ZM36.3125 62.25C36.3125 62.7086 36.1303 63.1484 35.806 63.4727C35.4818 63.797 35.0419 63.9791 34.5833 63.9791H17.2917C16.8331 63.9791 16.3932 63.797 16.069 63.4727C15.7447 63.1484 15.5625 62.7086 15.5625 62.25C15.5625 61.7914 15.7447 61.3516 16.069 61.0273C16.3932 60.703 16.8331 60.5208 17.2917 60.5208H34.5833C35.0419 60.5208 35.4818 60.703 35.806 61.0273C36.1303 61.3516 36.3125 61.7914 36.3125 62.25ZM17.2917 50.1458H31.125C31.5836 50.1458 32.0234 50.328 32.3477 50.6523C32.672 50.9766 32.8542 51.4164 32.8542 51.875C32.8542 52.3336 32.672 52.7734 32.3477 53.0977C32.0234 53.422 31.5836 53.6041 31.125 53.6041H17.2917C16.8331 53.6041 16.3932 53.422 16.069 53.0977C15.7447 52.7734 15.5625 52.3336 15.5625 51.875C15.5625 51.4164 15.7447 50.9766 16.069 50.6523C16.3932 50.328 16.8331 50.1458 17.2917 50.1458ZM17.2917 19.0208H31.125C31.5836 19.0208 32.0234 19.203 32.3477 19.5273C32.672 19.8516 32.8542 20.2914 32.8542 20.75C32.8542 21.2086 32.672 21.6484 32.3477 21.9727C32.0234 22.297 31.5836 22.4791 31.125 22.4791H17.2917C16.8331 22.4791 16.3932 22.297 16.069 21.9727C15.7447 21.6484 15.5625 21.2086 15.5625 20.75C15.5625 20.2914 15.7447 19.8516 16.069 19.5273C16.3932 19.203 16.8331 19.0208 17.2917 19.0208ZM41.5 32.8541H17.2917C16.8331 32.8541 16.3932 32.672 16.069 32.3477C15.7447 32.0234 15.5625 31.5836 15.5625 31.125C15.5625 30.6664 15.7447 30.2266 16.069 29.9023C16.3932 29.578 16.8331 29.3958 17.2917 29.3958H41.5C41.9586 29.3958 42.3984 29.578 42.7227 29.9023C43.047 30.2266 43.2292 30.6664 43.2292 31.125C43.2292 31.5836 43.047 32.0234 42.7227 32.3477C42.3984 32.672 41.9586 32.8541 41.5 32.8541Z" fill="#EA2E81"/>
</svg>
