<svg width="96" height="96" viewBox="0 0 96 96" fill="none" xmlns="http://www.w3.org/2000/svg">
<path d="M52.9655 80.0479V73.4482H0V80.0746C0 86.0754 4.84913 91.0344 10.8507 91.0344H58.3036C57.8485 90.6206 57.4097 90.2578 56.9951 89.8424C54.4032 87.2424 52.9533 83.7187 52.9655 80.0479Z" fill="#E20D6E"/>
<path d="M37.5011 40.0394L45.187 45.3161L52.9028 40.0394C55.0129 38.6001 56.6891 35.3519 56.6891 32.7981V21.894L45.2064 16.2148L33.7236 21.8794V32.7981C33.7236 35.3511 35.3901 38.6001 37.5011 40.0394ZM39.2314 29.7334C39.7996 29.1709 40.7169 29.175 41.2794 29.7439L43.5876 32.0747L49.1431 26.5201C49.7088 25.9543 50.6261 25.9543 51.1918 26.5209C51.7576 27.0866 51.7568 28.0039 51.191 28.5696L44.6067 35.1572C44.3352 35.4295 43.9674 35.5847 43.5827 35.5863H43.5795C43.1932 35.5839 42.8238 35.4279 42.5539 35.1515L39.2209 31.7846C38.6584 31.2148 38.6633 30.2975 39.2314 29.7334Z" fill="black"/>
<path d="M88.3227 4.96558H88.2766C84.0215 4.96558 80.4824 8.5208 80.4824 12.7783V26.069H95.9997V12.7525C96.019 8.48686 92.5883 5.00679 88.3227 4.96558Z" fill="#E20D6E"/>
<path d="M22.2351 4.96558C18.2111 4.96558 14.9363 8.19672 14.9363 12.1601L14.5088 70.5517H54.4139C55.2262 70.5841 55.8671 71.2541 55.8622 72.0679V80.048C55.8477 86.0811 60.7113 90.9908 66.7437 91.0345H66.78C72.7905 90.9908 77.6275 86.0835 77.5863 80.073V12.7808C77.5863 9.73632 78.9562 7.03454 81.0147 4.96558L22.2351 4.96558ZM30.8277 20.9758C30.8092 20.4311 31.1074 19.9243 31.5931 19.6754L44.5629 13.3012C44.9613 13.104 45.4285 13.104 45.8269 13.3012L58.8202 19.6932C59.3059 19.9421 59.6041 20.4481 59.5863 20.9936V32.798C59.5863 36.3112 57.4422 40.4532 54.5384 42.4324L46.0298 48.2667C45.7914 48.4308 45.5085 48.5189 45.2192 48.5189C44.9306 48.5189 44.6494 48.4316 44.4126 48.2667L35.8789 42.4324C32.9767 40.4523 30.8277 36.3104 30.8277 32.798V20.9758ZM65.7932 63.931H26.0691C25.269 63.931 24.6208 63.2829 24.6208 62.4828C24.6208 61.6827 25.269 61.0345 26.0691 61.0345H65.7932C66.5933 61.0345 67.2415 61.6827 67.2415 62.4828C67.2415 63.2829 66.5933 63.931 65.7932 63.931ZM65.7932 56.2759H26.0691C25.269 56.2759 24.6208 55.6277 24.6208 54.8276C24.6208 54.0275 25.269 53.3793 26.0691 53.3793H65.7932C66.5933 53.3793 67.2415 54.0275 67.2415 54.8276C67.2415 55.6277 66.5933 56.2759 65.7932 56.2759Z" fill="#E20D6E"/>
</svg>
